<?xml version="1.0" encoding="UTF-8"?>
<svg xmlns="http://www.w3.org/2000/svg" xmlns:xlink="http://www.w3.org/1999/xlink" width="354pt" height="354pt" viewBox="0 0 354 354" version="1.1">
<g id="surface1">
<path style=" stroke:none;fill-rule:evenodd;fill:rgb(4.705882%,85.09804%,30.588236%);fill-opacity:1;" d="M 354 177 C 354 274.753906 274.753906 354 177 354 C 79.246094 354 0 274.753906 0 177 C 0 79.246094 79.246094 0 177 0 C 274.753906 0 354 79.246094 354 177 Z M 354 177 "/>
<path style=" stroke:none;fill-rule:nonzero;fill:rgb(100%,100%,100%);fill-opacity:1;" d="M 96.074219 271.84375 C 106.882812 258.945312 107.304688 240.964844 114.191406 226.648438 C 113.859375 230.800781 114.480469 235.027344 114.027344 239.171875 C 117.117188 231.183594 118.371094 222.894531 119.273438 214.425781 C 143.65625 223.984375 160.027344 88.097656 160.027344 71.875 C 157.566406 99.632812 165.511719 128.140625 163.308594 156.695312 C 162.15625 171.632812 156.183594 184.550781 153.378906 199.0625 C 151.453125 209.035156 157.542969 233.847656 162.078125 212.738281 C 162.613281 215.628906 165.054688 220.085938 165.273438 224.273438 C 165.589844 223.761719 168.972656 219.238281 168.222656 220.820312 C 169.570312 235.554688 168.664062 248.066406 181.433594 256.8125 C 182.671875 254.25 186.742188 250.964844 187.457031 248.285156 C 192.058594 261.578125 194.878906 260.742188 206.03125 262.152344 C 208.242188 262.433594 213.757812 259.515625 217.464844 259.957031 C 220.773438 260.347656 224.667969 265.226562 227.222656 265.117188 C 247.3125 264.246094 227.550781 244.664062 221.898438 231.59375 C 207.519531 198.316406 206.929688 157.183594 194.835938 124.722656 C 195.773438 150.847656 209.25 185.515625 218.660156 209.632812 C 227.957031 233.453125 248.03125 247.15625 268.007812 261.515625 C 266.6875 259.007812 266.199219 254.320312 265.191406 252.125 C 269.722656 255.347656 273.457031 257.378906 276.46875 261.859375 C 283.679688 258.628906 309.183594 278.269531 318.601562 282.078125 C 279.304688 272.578125 242.53125 282.644531 201.027344 280.308594 C 180.339844 279.140625 166.019531 278.21875 146.996094 282.085938 C 125.109375 286.53125 110.652344 276.300781 91.15625 275.230469 "/>
<path style=" stroke:none;fill-rule:nonzero;fill:rgb(100%,100%,100%);fill-opacity:1;" d="M 37.039062 253.226562 C 36.371094 258.726562 36.492188 263.195312 39.90625 266.59375 C 44.128906 258.539062 44.734375 248.808594 45.480469 239.933594 C 50.371094 237.089844 48.382812 237.523438 52.078125 233.164062 C 58.640625 231.855469 60.140625 224.5625 62.054688 217.855469 C 75.246094 226.179688 71.464844 249.125 71.484375 263.628906 C 81.410156 245.714844 68.710938 212.019531 89.554688 194.605469 C 89.378906 195.464844 89.472656 196.304688 89.835938 197.121094 C 99.605469 186.5 112.859375 145.703125 111.160156 131.53125 C 117.390625 140.375 117.039062 160.410156 114.121094 171.472656 C 114.609375 159.621094 116.078125 144.3125 119.125 133.140625 C 121.976562 122.664062 129.339844 111.296875 131.746094 101.027344 C 132.476562 103.21875 133.515625 105.390625 134.203125 107.523438 C 134.816406 105.382812 137.773438 101.03125 138.351562 98.011719 C 140.816406 105.496094 142.808594 112.691406 143.636719 120.691406 C 147.992188 99.816406 141.601562 79.351562 152.242188 60.605469 C 161.199219 44.820312 175.453125 41.238281 176.429688 20.15625 C 174.757812 43.292969 180.84375 70.957031 184.667969 93.609375 C 181.269531 73.988281 180.414062 49.855469 181.71875 29.929688 C 185.664062 36.414062 186.148438 48.992188 195.820312 48.660156 C 196.621094 49.035156 196.171875 52.023438 197.296875 52.910156 C 198.746094 51.921875 199.46875 50.773438 201.023438 49.949219 C 206.554688 54.597656 205.765625 60.140625 207.953125 66.660156 C 209.875 72.402344 213.871094 78.5 215.421875 82.652344 C 220.46875 96.199219 220.691406 109.703125 224.070312 124.074219 C 223.613281 115.886719 223.667969 107.476562 222.34375 99.199219 C 220.738281 89.132812 218.167969 86.269531 215.382812 77.609375 C 210.992188 63.972656 203.265625 50.792969 200.609375 36.828125 C 180.785156 52.710938 191.742188 15.160156 176.390625 17.835938 C 163.746094 20.039062 175.058594 48.695312 153.710938 43.589844 C 153.519531 47.273438 151.457031 49.542969 151.550781 53.207031 C 136.667969 58.921875 140.8125 80.621094 140.066406 93.824219 C 132 94.257812 124.109375 97.9375 123.671875 107.371094 C 111.765625 114.207031 125.101562 132.890625 102.917969 131.652344 C 91.277344 155.652344 99.761719 180.863281 76.8125 200.808594 C 62.253906 213.464844 36.773438 229.289062 35.398438 254.917969 "/>
<path style=" stroke:none;fill-rule:nonzero;fill:rgb(100%,100%,100%);fill-opacity:1;" d="M 197.746094 99.195312 C 207.171875 122.632812 209.316406 156.894531 223.613281 178.621094 C 223.621094 174.972656 224.527344 170.675781 224.347656 167.039062 C 227.027344 174.398438 234.324219 183.734375 238.734375 190.855469 C 239.191406 190.34375 241.765625 187.144531 240.339844 188.699219 C 252.484375 214.398438 278.839844 230.167969 297.125 251.695312 C 281.914062 232.023438 263.339844 214.121094 258.511719 188.898438 C 255.746094 174.453125 256.617188 161.171875 251.496094 147.003906 C 247.355469 135.546875 246.152344 115.667969 239.933594 106.566406 C 236.570312 120.386719 240.101562 133.773438 244.074219 146.125 C 248.277344 159.191406 247.015625 170.015625 250.210938 184.082031 C 249.738281 182.128906 245.117188 176.285156 242.265625 172.492188 C 242.375 174.777344 241.992188 177.5 242.101562 179.9375 C 238.84375 174.5625 236.15625 169.433594 233.738281 164.117188 C 233.835938 166.648438 233.371094 169.453125 233.496094 171.84375 C 216.640625 150.652344 212.523438 120.636719 199.386719 99.195312 "/>
<path style=" stroke:none;fill-rule:nonzero;fill:rgb(100%,100%,100%);fill-opacity:1;" d="M 55.078125 232.914062 C 55.078125 242.917969 53.933594 251.132812 50.839844 260.5625 C 49.019531 266.109375 45.160156 272.050781 44.226562 277.398438 C 58.902344 266.84375 61.09375 237.917969 61.09375 221.238281 C 60.890625 227.308594 61.601562 233.976562 62.855469 239.636719 C 65.785156 235.007812 63.261719 226.917969 66.011719 221.832031 C 69.261719 230.578125 68.660156 243.703125 68.195312 253.226562 C 67.785156 261.679688 66.433594 267.046875 63.25 274.46875 C 69.207031 264.253906 70.890625 248.164062 71.476562 236.300781 C 71.804688 229.65625 71.433594 223.859375 73.007812 217.679688 C 73.648438 215.160156 79.863281 199.535156 82.269531 208.605469 C 83.046875 206.921875 83.523438 205.011719 83.621094 203.179688 C 84.402344 205.652344 85.558594 208.257812 86.355469 210.851562 C 88.371094 208.265625 87.292969 203.671875 88.832031 200.789062 C 91.332031 211.414062 92.578125 225.433594 91.03125 236.324219 C 90.425781 240.570312 91.054688 248.1875 89.484375 251.925781 C 90.003906 240.996094 93.339844 231.445312 93.339844 219.9375 C 93.339844 214.484375 93.347656 209.027344 93.339844 203.574219 C 93.335938 197.261719 95.496094 194.996094 97.835938 189.515625 C 106.167969 197.425781 102.085938 217.199219 102.632812 227.835938 C 103.308594 240.984375 103.960938 254.253906 106.035156 267.296875 C 108.183594 259.703125 105.238281 249.929688 104.820312 241.929688 C 104.449219 234.835938 104.707031 227.488281 105.382812 220.515625 C 106.417969 209.800781 105.320312 199.023438 104.394531 188.339844 C 104.023438 184.097656 100.480469 167.878906 105.804688 166.414062 C 106.796875 169.707031 107.339844 173.359375 108.796875 176.425781 C 109.027344 176.460938 109.164062 176.367188 109.207031 176.136719 C 109.789062 179.160156 109.871094 182.628906 110.984375 185.359375 C 111.074219 183.804688 111.617188 181.71875 111.460938 179.964844 C 118.167969 180.753906 118.65625 203.394531 119.699219 209.171875 C 123.285156 199.203125 118.832031 184.953125 117.515625 174.800781 C 116.246094 165.027344 118.714844 154.027344 119.589844 144.304688 C 119.980469 139.976562 117.484375 131.769531 118.789062 127.632812 C 121.003906 120.625 124.96875 127.195312 127.65625 131.921875 C 132.34375 140.152344 131.660156 149.773438 133.789062 159.394531 C 133.523438 156.632812 134.132812 153.972656 134.335938 151.277344 C 134.019531 154.183594 136.015625 155.082031 136.566406 157.28125 C 137.238281 159.964844 137.039062 162.96875 137.070312 165.773438 C 137.113281 169.632812 135.675781 178.40625 138.058594 180.988281 C 142.632812 163.695312 136.226562 143.410156 133.246094 126.84375 C 132.488281 122.640625 134.746094 105.15625 127.886719 110.484375 C 123.84375 113.621094 122.464844 125.871094 121.683594 130.695312 C 119.507812 131.339844 117.761719 132.761719 116.273438 134.546875 C 116.808594 127.070312 110.90625 135.042969 109.875 137.578125 C 108.101562 141.945312 106.65625 146.5625 105.351562 151.101562 C 102.398438 161.398438 98.597656 170.988281 96.101562 181.035156 C 94.0625 189.246094 85.972656 194.058594 80.917969 200.1875 C 77.957031 203.785156 74.332031 207.476562 71.339844 210.894531 C 67.957031 214.757812 64.976562 213.5 61.226562 216.128906 C 56.011719 219.789062 56.894531 227.71875 53.4375 231.222656 "/>
<path style=" stroke:none;fill-rule:nonzero;fill:rgb(100%,100%,100%);fill-opacity:1;" d="M 176.972656 124.023438 C 177.046875 136.105469 177.550781 147.308594 174.101562 159.128906 C 170.082031 172.917969 168.613281 187.535156 171.066406 201.84375 C 172.945312 199.121094 173.730469 194.644531 174.636719 191.332031 C 176.964844 197.859375 177.976562 205.679688 179.84375 212.589844 C 182.21875 221.410156 186.199219 233.378906 191.078125 240.78125 C 191.9375 227.285156 187.167969 212.5 184.75 199.199219 C 183.964844 194.875 183.03125 188.0625 183.519531 183.691406 C 183.984375 179.5625 185.183594 179.191406 187.238281 175.972656 C 187.902344 179.625 190.640625 188.257812 195.449219 186.253906 C 197.0625 191.4375 198.257812 197.0625 201.472656 201.296875 C 200.910156 190.195312 194.855469 178.042969 192.292969 167.039062 C 189.996094 157.15625 188.46875 147.171875 186.933594 137.125 C 185.382812 126.957031 184.710938 115.140625 185.144531 104.835938 C 185.414062 98.460938 187.992188 91.832031 187.933594 85.800781 C 179.523438 110.117188 185.289062 135.59375 184 160.605469 C 182.679688 159.835938 181.476562 159.300781 180.953125 157.351562 C 180.46875 158.816406 179.824219 159.945312 179.707031 161.527344 C 179.699219 153.359375 183.804688 129.511719 176.429688 125.148438 "/>
</g>
</svg>
